<?xml version="1.0" encoding="utf-8"?>
<!-- Generator: Adobe Illustrator 21.1.0, SVG Export Plug-In . SVG Version: 6.00 Build 0)  -->
<svg version="1.1" id="Layer_1" xmlns="http://www.w3.org/2000/svg" xmlns:xlink="http://www.w3.org/1999/xlink" x="0px" y="0px"
	 viewBox="0 0 296.9 208.7" style="enable-background:new 0 0 296.9 208.7;" xml:space="preserve">
<style type="text/css">
	.st0{fill:none;}
	.st1{fill:#1D71B8;}
	.st2{fill:#36A9E1;}
	.st3{fill:#444444;}
</style>
<g>
	<polygon class="st0" points="184.9,47 80.6,0 184.9,47 	"/>
	<polygon class="st1" points="145.3,154.3 230.6,67.5 184.9,47 	"/>
	<polygon class="st2" points="230.6,67.5 296.9,0 80.6,0 	"/>
</g>
<path class="st3" d="M51,138.8c-2.5,4.4-6.2,8-11.2,10.7c-5,2.8-11,4.1-18,4.1c-6.8,0-12.1-1.8-15.9-5.5c-3.8-3.7-5.8-8.7-5.8-14.9
	c0-6.1,2.9-11.2,8.6-15.3c5.7-4.1,12.9-6.2,21.6-6.2H51v-10.6c0-6-1.9-10.7-5.8-14.1c-3.9-3.4-9.3-5.1-16.3-5.1
	c-6.6,0-11.9,1.6-15.9,4.8C9,89.9,7,94,7,99l-3-0.1l-0.1-0.3c-0.3-5.6,1.9-10.4,6.6-14.3c4.7-3.9,10.8-5.9,18.5-5.9
	c7.8,0,14,2,18.7,5.9c4.7,3.9,7,9.6,7,17v36.4c0,2.5,0.1,5,0.4,7.4c0.3,2.4,0.8,4.8,1.4,7.2h-4c-0.6-3.2-1-5.6-1.2-7.1
	c-0.2-1.6-0.3-3.3-0.3-5.1V138.8z M21.8,150.1c7.2,0,13.3-1.6,18.3-4.8c5-3.2,8.6-7.7,11-13.6v-16.3H30.5c-7.5,0-13.9,1.7-19,5.2
	c-5.2,3.5-7.8,7.7-7.8,12.8c0,4.9,1.6,8.9,4.9,12C11.9,148.5,16.3,150.1,21.8,150.1z"/>
<path class="st3" d="M82.5,56.8h-3.6v-9.3h3.6V56.8z M82.5,152.2h-3.6V79.7h3.6V152.2z"/>
<path class="st3" d="M138.3,82.3l-4.7-0.4c-6.5,0-11.8,2.1-15.8,6.3c-4,4.2-6.7,9.7-7.9,16.5v47.6h-3.6V79.7h3l0.7,12.6v2.5
	c2-5.2,5-9.2,9-12.1c4-2.9,8.9-4.3,14.7-4.3c1,0,2,0.1,2.9,0.2c0.9,0.2,1.6,0.3,2.2,0.5L138.3,82.3z"/>
<g>
	<path class="st3" d="M15.7,208.5v-9.6H2.5v9.6H0v-21.9h2.5v9.9h13.2v-9.9h2.5v21.9H15.7z"/>
	<path class="st3" d="M58.3,197.6c0,6.2-5.1,11.1-11.4,11.1c-6.4,0-11.5-4.9-11.5-11.1c0-6.2,5.1-11,11.5-11
		C53.2,186.6,58.3,191.4,58.3,197.6z M37.9,197.6c0,4.8,4.1,8.7,8.9,8.7c4.9,0,8.9-3.8,8.9-8.7c0-4.8-4-8.6-8.9-8.6
		C42,189,37.9,192.8,37.9,197.6z"/>
	<path class="st3" d="M81.9,189v19.5h-2.5V189h-7.1v-2.4h16.8v2.4H81.9z"/>
	<path class="st3" d="M108.8,189v7.2h11v2.4h-11v7.5h12.8v2.4h-15.3v-21.9h14.9v2.4H108.8z"/>
	<path class="st3" d="M152.5,206.2v2.4h-12.1v-21.9h2.5v19.5H152.5z"/>
	<g>
		<polygon class="st3" points="222.2,199.1 223.8,205.7 217.9,202.2 212,205.7 213.6,199.1 208.4,194.6 215.2,194 217.9,187.7 
			220.6,194 227.4,194.6 		"/>
	</g>
	<g>
		<polygon class="st3" points="185.9,199.1 187.4,205.7 181.5,202.2 175.7,205.7 177.2,199.1 172,194.6 178.8,194 181.5,187.7 
			184.2,194 191,194.6 		"/>
	</g>
</g>
</svg>
